<svg height="12" viewBox="0 0 18 12" width="18" xmlns="http://www.w3.org/2000/svg"><g fill="none" fill-rule="evenodd" transform="translate(0 -3)"><path d="m0 0h18v18h-18z"/><g fill-rule="nonzero"><path d="m2.25 11.25h.585c.4125-.4575 1.005-.75 1.665-.75s1.2525.2925 1.665.75h5.085v-6.75h-9z" fill="#fff"/><path d="m12.75 6v-3h-10.5c-.825 0-1.5.675-1.5 1.5v8.25h1.5c0 1.245 1.005 2.25 2.25 2.25s2.25-1.005 2.25-2.25h4.5c0 1.245 1.005 2.25 2.25 2.25s2.25-1.005 2.25-2.25h1.5v-3.75l-2.25-3zm-8.25 7.5c-.4125 0-.75-.3375-.75-.75s.3375-.75.75-.75.75.3375.75.75-.3375.75-.75.75zm6.75-2.25h-5.085c-.4125-.4575-.9975-.75-1.665-.75s-1.2525.2925-1.665.75h-.585v-6.75h9zm2.25 2.25c-.4125 0-.75-.3375-.75-.75s.3375-.75.75-.75.75.3375.75.75-.3375.75-.75.75zm-.75-4.5v-1.875h1.875l1.47 1.875z" fill="#ff6630"/></g></g></svg>