<svg height="44.517688" viewBox="0 0 320 44.5176882" width="320" xmlns="http://www.w3.org/2000/svg"><g fill="#ff6630"><path d="m69.2901027 23.8165193c-.643317-.6750109-1.5027589-1.2694385-2.5793372-1.7839573-1.0772527-.5138445-2.3861399-.9801482-3.9293591-1.3982368-1.1891925-.3209842-2.1292176-.6102746-2.8200754-.8678712-.6908578-.2569222-1.2134686-.4821506-1.5664838-.6750109-.3216585-.224554-.571163-.4979975-.7471649-.819656-.1773505-.3209842-.2653514-.6584897-.2653514-1.0125163 0-.3540267.0728284-.6750109.2171364-.9639641.1449823-.2892904.3611072-.5377834.6507347-.7471649.2896276-.2087072.6507348-.3617816 1.0846704-.4578745.4339355-.0964302.923841-.1446452 1.4703908-.1446452.6106117 0 1.3014695.1287983 2.0729105.3853833.7717782.2575966 1.5192803.6109489 2.2418319 1.0607314.4875453.3034514.9417109.6284817 1.3628341.9750906.3415515.2808612.8429207.2400638 1.1396288-.0880009l2.5594443-2.8295161c.314578-.3476205.2838957-.8877641-.0711425-1.1939129-.6544436-.5640825-1.3860987-1.0694977-2.1946283-1.5162457-1.0772526-.5944276-2.2418318-1.0526393-3.4950863-1.3739607-1.2542659-.3209842-2.5398885-.48215061-3.857205-.48215061-1.3173164 0-2.5715824.18544251-3.7604377.55430461-1.1898668.3698736-2.2418318.8918101-3.157918 1.566821-.9157491.6750109-1.6312201 1.4869121-2.1454018 2.4346921-.5145187.9484543-.771441 2.0007565-.771441 3.157918 0 .9643013.1524001 1.8406016.4582117 2.6275523.3051373.7879623.7471649 1.5186059 1.3260828 2.1936168.6750109.707379 1.5826679 1.3422669 2.7236453 1.9043264 1.1406403.5627339 2.5311222 1.0533137 4.1704344 1.4703908 1.0607314.2892904 1.9286025.5546418 2.6032762.79538.6750109.2410753 1.1726712.4578745 1.4946669.6510719.5782436.3857205.867534.9326075.867534 1.6393122 0 .3540266-.0718168.6831029-.2167992.9882402-.144308.3058116-.3614444.5627338-.6507348.771441-.2892903.2093815-.635225.3698736-1.0364552.4821506-.4022418.1129514-.8439322.1689213-1.3260828.1689213-1.2218978 0-2.442447-.2326461-3.6640076-.699287-1.0067845-.3836975-1.925568-.9696959-2.7573622-1.757321-.3085089-.2923249-.787625-.3051373-1.1106322-.0293337l-3.0523844 2.6066479c-.3638046.3108692-.3971842.8682083-.0643991 1.21212 1.0391526 1.0732066 2.3308442 1.9383804 3.8750749 2.5961957 1.8480193.7872879 3.9610528 1.1811004 6.339775 1.1811004 1.9286025 0 3.6640076-.3540267 5.2068896-1.0607314 1.5432192-.7063675 2.7556763-1.6710059 3.6397315-2.8925666.8840552-1.2212234 1.3260828-2.6194603 1.3260828-4.1943733 0-.8992277-.1287983-1.719221-.3857205-2.4589682-.2575965-.7387356-.659164-1.3982368-1.2053766-1.9764804z"/><path d="m93.9000149 30.2766634h-11.5618372l11.5793699-15.308451c.0586673-.0772116.0900239-.1716187.0900239-.268386v-3.8413581c0-.2457957-.1989292-.4447249-.4447249-.4447249h-19.4559579c-.2454585 0-.4443878.1992664-.4443878.4447249v4.7510381c0 .2457957.1989293.444725.4443878.444725h11.5200283l-11.8723692 15.4042068c-.0600159.0778858-.0923841.1733045-.0923841.2714204v3.742905c0 .2457957.1989293.444725.4443878.444725h19.7931262c.2454585 0 .4447249-.1992665.4447249-.444725v-4.7513753c0-.2457956-.1992664-.4447249-.4447249-.4447249z"/><path d="m122.201582 10.4134062h-5.129678c-.460572 0-.834491.3735824-.834491.8341543v2.5196585c-.488894-.6689419-1.056011-1.2751704-1.711466-1.8109308-.7883-.6426427-1.704386-1.1487323-2.748259-1.5186059-1.044884-.3688621-2.193617-.55430464-3.447208-.55430464-2.217219 0-4.194036.56273384-5.930116 1.68752724-1.735405 1.1254676-3.1093657 2.6841966-4.1222191 4.6765239-1.0121792 1.9933388-1.5182688 4.2749565-1.5182688 6.8462017 0 2.5712453.4973232 4.8535373 1.494667 6.8458646.9956579 1.9933388 2.3453429 3.5679147 4.0493909 4.724739 1.703711 1.1571615 3.61613 1.7357422 5.737255 1.7357422 1.188856 0 2.314323-.1854425 3.374718-.5543046 1.060731-.3688621 2.016603-.8678711 2.86829-1.4943298.717494-.5283426 1.332826-1.1227703 1.856111-1.7765396v2.5092063c0 .4605718.37392.8341543.834492.8341543h5.226108c.460572 0 .833817-.3735825.833817-.8341543v-23.8354366c0-.4605719-.373245-.8341543-.833817-.8341543zm-6.663119 16.560694c-.530366 1.1089464-1.277193 1.9690627-2.241832 2.5793372-.964638.6109489-2.089769.9157491-3.374717.9157491-1.253255 0-2.35512-.3051373-3.302563-.9157491-.948455-.6102745-1.69562-1.4703908-2.241832-2.5793372-.547224-1.1089465-.819319-2.402324-.819319-3.881144 0-1.4464519.272095-2.7155533.819319-3.8086528.546212-1.0924252 1.293377-1.9528786 2.241832-2.5793373.947443-.6267958 2.049308-.9400251 3.302563-.9400251 1.284948 0 2.410416.3135665 3.374717.9400251.964639.6267958 1.711466 1.4869121 2.241832 2.5793373.530029 1.0930995.795717 2.3622009.795717 3.8086528 0 1.47882-.265351 2.7721975-.795717 3.881144z"/><path d="m163.026928 11.112356c-1.317991-.7872879-2.97315-1.18110044-4.965814-1.18110044-.83584 0-1.68719.12879824-2.554724.38538334-.868546.2575965-1.704723.6109489-2.507183 1.0607314-.803472.4504568-1.527373.9966694-2.169341 1.6393121-.516205.5162046-.956546 1.0752296-1.327094 1.6740405-.353016-.8537101-.777173-1.5826679-1.276519-2.1801301-.739748-.8833808-1.639313-1.5344528-2.700044-1.9525414-1.060731-.4174143-2.249924-.62679584-3.567577-.62679584-.867872 0-1.73608.13722744-2.603277.40965944-.867871.2734435-1.687527.6507348-2.458968 1.1328854-.771104.4821506-1.454207 1.0607314-2.048634 1.7357423-.16083.182408-.311544.3722337-.454166.5664427l-.0762-2.5533754c-.01315-.4507939-.383023-.809541-.833817-.809541h-4.961094c-.460572 0-.833817.3735825-.833817.8341543v23.8354366c0 .4605719.373245.8341543.833817.8341543h5.226108c.460572 0 .834492-.3735824.834492-.8341543v-14.4486719c0-.6750109.127786-1.3018067.38572-1.8800503.256585-.5785807.609938-1.0846703 1.060732-1.5186059.449445-.4339356.98824-.771441 1.614698-1.0125163.627133-.2410753 1.309562-.3617816 2.049309-.3617816.899228 0 1.654485.1928603 2.266108.5785808.609937.3857205 1.076241.9568835 1.3979 1.7114661.320984.7555941.481813 1.6632511.481813 2.7239825v14.2075966c0 .4605719.37392.8341543.834492.8341543h5.226108c.460572 0 .833817-.3735824.833817-.8341543v-14.4004568c0-.6750109.127787-1.3092244.38572-1.9043264.256923-.5944277.618704-1.1086093 1.084671-1.5428821.465629-.4339355 1.012853-.771441 1.638975-1.0125163.627133-.2410753 1.309899-.3617815 2.049646-.3617815.963964 0 1.750915.1854425 2.362201.5546418.609937.3698736 1.076241.9241782 1.397899 1.6632511.320984.7397471.481814 1.68719.481814 2.8443515v14.1597187c0 .4605719.373919.8341543.834491.8341543h5.177893c.460909 0 .834492-.3735824.834492-.8341543v-14.6418693c0-2.2819549-.329751-4.2102202-.988578-5.7854704-.659164-1.5742387-1.647404-2.7556763-2.965057-3.5436385z"/><path d="m172.32232.2403651h5.177556c.460235 0 .833817.37391962.833817.83415431v34.00847769c0 .4602347-.373919.8341543-.834154.8341543h-5.177219c-.460572 0-.834491-.3739196-.834491-.8344915v-34.00814049c0-.46023469.373919-.83415431.834154-.83415431z"/><path d="m233.114771 30.2766634h-11.172408l11.500136-15.204266c.109916-.1449824.168921-.3216586.168921-.5033923v-3.3211074c0-.4605719-.373245-.8341543-.834492-.8341543h-18.676762c-.460909 0-.834491.3735824-.834491.8341543v3.9721794c0 .4605718.373245.8341543.834491.8341543h11.130599l-11.791448 15.2990103c-.112615.1459938-.173642.3250302-.173642.5091241v3.2206313c0 .4605718.373245.8341543.834491.8341543h19.014268c.460909 0 .834491-.3735825.834491-.8341543v-3.9725166c0-.4605718-.373245-.8341543-.834491-.8341543z"/><path d="m256.882774 10.4134062h-18.676762c-.460909 0-.834492.3735824-.834492.8341543v3.9721794c0 .4605718.373246.8341543.834492.8341543h11.130262l-11.791449 15.2990103c-.112277.1459939-.173305.3250302-.173305.5091241v3.2206313c0 .4605719.373246.8341543.834492.8341543h16.420769c.461583 0 .834829-.3742568.834492-.835503l-.006744-3.9725165c-.001011-.4602347-.373919-.8328057-.834491-.8328057h-8.572166l11.500135-15.204266c.109242-.1449823.168921-.3216585.168921-.5033922v-3.3211075c0-.4605718-.373245-.8341543-.834491-.8341543z"/><path d="m262.110231 28.2998458c-1.157162 0-2.097524.3783028-2.82075 1.1328854-.723226.7555941-1.08467 1.7279874-1.08467 2.9168427 0 1.3179908.337505 2.3308443 1.012179 3.0372118.675011.7067047 1.639312 1.0607314 2.892904 1.0607314 1.156487 0 2.08842-.3783028 2.796136-1.1328854.706705-.7549198 1.060732-1.74316 1.060732-2.9650578 0-1.2852854-.337506-2.2819549-1.01218-2.9889967-.67501-.7067047-1.623128-1.0607314-2.844351-1.0607314z"/><path d="m288.244144 11.040202c-1.301807-.7711038-2.91718-1.15716151-4.845783-1.15716151-1.414421 0-2.764443.28929041-4.049728.86787111-1.28596.5782436-2.38614 1.3422669-3.302563 2.2900469-.198929.2060098-.382012.4177515-.554305.6335392v-12.59964112c0-.46057186-.373919-.83415431-.834491-.83415431h-5.080789c-.460909 0-.834491.37358245-.834491.83415431v34.00814052c0 .4605718.373245.8344915.834491.8344915h5.177556c.460572 0 .834491-.3739197.834491-.8344915v-14.4972242c0-.6750109.136216-1.3014695.409323-1.8800503.273106-.5785807.643317-1.092088 1.108946-1.542882.46563-.4497824 1.028363-.7953799 1.687527-1.0364552.658153-.2410753 1.373961-.3614444 2.145402-.3614444.963964-.0316938 1.775528.1287983 2.434355.4821506.658827.3540267 1.14907.9160862 1.470391 1.68719.321321.771441.48215 1.7357423.48215 2.8929038v14.2561489c0 .4605718.37392.8341543.834492.8341543h5.177556c.460909 0 .834491-.3735825.834491-.8341543v-14.7861774c0-2.2819549-.32975-4.2021282-.98824-5.7611943-.659164-1.5587289-1.639312-2.7239824-2.940781-3.4954234z"/><path d="m319.536731 10.4134062h-5.918315c-.256585 0-.464281.2076956-.464281.4639435v14.8192199c0 .707379-.128798 1.3662058-.38572 1.9764804-.257597.6109489-.619041 1.1413146-1.08467 1.5910971-.46563.4504568-1.011842.7953799-1.638975 1.0367924-.627133.2410753-1.309899.3614444-2.048635.3614444-1.029375 0-1.896908-.2245541-2.60395-.6750109-.707042-.4497825-1.253255-1.1005172-1.638975-1.9525415-.385721-.8513498-.578244-1.8561113-.578244-3.0132728v-14.144209c0-.2562479-.207696-.4639435-.463943-.4639435h-5.918652c-.255911 0-.463944.2076956-.463944.4639435v15.2528183c0 2.1538309.361445 3.9940953 1.084671 5.5201189.723225 1.5270351 1.751589 2.7000435 3.085089 3.5193624 1.333501.8196561 2.93269 1.2293155 4.796893 1.2293155 1.446789 0 2.796474-.2734434 4.050065-.819656 1.253255-.5462126 2.329833-1.3018067 3.230072-2.266108.276816-.2963709.52632-.605217.754246-.9228295l.141611 3.083741c.011463.2478187.21545.4427019.463269.4427019h5.601376c.256585 0 .464281-.2076956.464281-.4639435v-24.5758581c0-.2562479-.207696-.4639436-.464281-.4639436z"/><path d="m191.105965 7.26223152 11.844721-1.54928821c.201289-.03203098.349643-.20466114.351666-.40831077l.042498-4.88354524c.002346-.29030188-.284584-.49428869-.558028-.39617272l-11.887879 3.48969161c-.15712.0563071-.265351.20128945-.275466.36818775v2.94314184c-.01551.26602576.219159.47810461.48215.43629574z"/><path d="m105.448365 7.26223152 11.845396-1.54928821c.201289-.03203098.349306-.20466114.351329-.40831077l.043172-4.88354524c.002346-.29030188-.284921-.49428869-.558028-.39617272l-11.887879 3.48969161c-.157457.0563071-.266025.20128945-.275803.36818775v2.94314184c-.01551.26602576.219159.47810461.48215.43629574z"/><path d="m207.907397 10.4619584h-5.129678c-.460572 0-.834492.3735825-.834492.8341543v2.5196585c-.488894-.6689418-1.056011-1.2751704-1.711466-1.8109308-.788299-.6426427-1.704386-1.1487323-2.748259-1.5186059-1.044884-.3688621-2.193616-.55430461-3.447208-.55430461-2.217218 0-4.194036.56273381-5.930115 1.68752721-1.735406 1.1254677-3.109366 2.6841966-4.12222 4.6765239-1.012179 1.9933388-1.518269 4.2749565-1.518269 6.8462018 0 2.5712452.497324 4.8535372 1.494667 6.8458645.995658 1.9933389 2.345343 3.5679147 4.049391 4.724739 1.703712 1.1571615 3.61613 1.7357423 5.737256 1.7357423 1.188855 0 2.314323-.1854426 3.374717-.5543047 1.060731-.368862 2.016603-.8678711 2.86829-1.4943297.717494-.5283427 1.332827-1.1227704 1.856112-1.7765397v2.5092063c0 .4605719.373919.8341543.834491.8341543h5.226108c.460572 0 .833818-.3735824.833818-.8341543v-23.8354366c0-.4605718-.373246-.8341543-.833818-.8341543zm-6.66312 16.560694c-.530365 1.1089464-1.277193 1.9690627-2.241831 2.5793373-.964639.6109489-2.089769.915749-3.374718.915749-1.253254 0-2.35512-.3051373-3.302563-.915749-.948454-.6102746-1.695619-1.4703909-2.241832-2.5793373-.547224-1.1089465-.819319-2.4023239-.819319-3.881144 0-1.4464519.272095-2.7155532.819319-3.8086528.546213-1.0924252 1.293378-1.9528786 2.241832-2.5793372.947443-.6267959 2.049309-.9400252 3.302563-.9400252 1.284949 0 2.410416.3135665 3.374718.9400252.964638.6267958 1.711466 1.486912 2.241831 2.5793372.530029 1.0930996.795717 2.3622009.795717 3.8086528 0 1.4788201-.265351 2.7721975-.795717 3.881144z"/><path d="m33.3904482 8.51885767v28.95533683c0 .7286206-.5907188 1.3193394-1.3193394 1.3193394h-24.3583846l-.14329651 1.6379635c-.06305047.7191799.46360637 1.3554164 1.18177479 1.4279076l26.25293312 2.6514913c.7303065.0738398 1.3807041-.4629321 1.446789-1.19425l2.9765215-32.9420145c.0657478-.72727193-.4716984-1.36957749-1.1993075-1.43330229l-4.8376904-.42314618z"/><path d="m0 1.48721337v33.14937293c0 .7286206.59071881 1.3193394 1.31933945 1.3193394h27.91382395c.7286207 0 1.3193395-.5907188 1.3193395-1.3193394v-33.14937293c0-.72862063-.5907188-1.31933944-1.3193395-1.31933944h-27.91382395c-.72862064 0-1.31933945.59071881-1.31933945 1.31933944zm18.4808673 12.86735273c0 .5843126-.4737214 1.058034-1.0580341 1.058034h-11.87439213c-.58431261 0-1.05803403-.4737214-1.05803403-1.058034v-.7562684c0-.5843126.47372142-1.0580341 1.05803403-1.0580341h11.87439213c.5843127 0 1.0580341.4737215 1.0580341 1.0580341zm7.6166312-6.84249289c0 .58431261-.4737214 1.05803403-1.058034 1.05803403h-19.60633498c-.58431261 0-1.05803403-.47372142-1.05803403-1.05803403v-.75626843c0-.58431262.47372142-1.05803404 1.05803403-1.05803404h19.60633498c.5843126 0 1.058034.47372142 1.058034 1.05803404z"/></g></svg>